<svg width="56" height="56" viewBox="0 0 56 56" fill="none" xmlns="http://www.w3.org/2000/svg">
<rect width="56" height="56" rx="16" fill="#F4F7F6"/>
<path d="M21.75 41C23.0417 41 24.099 40.6771 24.9219 40.0312C25.7448 39.3854 26.375 38.4375 26.8125 37.1875C27.1667 36.1458 27.5052 35.4167 27.8281 35C28.151 34.5833 28.8958 33.9167 30.0625 33C31.3542 31.9583 32.375 30.7812 33.125 29.4688C33.875 28.1562 34.25 26.5833 34.25 24.75C34.25 22.2708 33.4115 20.1927 31.7344 18.5156C30.0573 16.8385 27.9792 16 25.5 16C23.0208 16 20.9427 16.8385 19.2656 18.5156C17.5885 20.1927 16.75 22.2708 16.75 24.75H19.25C19.25 22.9792 19.849 21.4948 21.0469 20.2969C22.2448 19.099 23.7292 18.5 25.5 18.5C27.2708 18.5 28.7552 19.099 29.9531 20.2969C31.151 21.4948 31.75 22.9792 31.75 24.75C31.75 26.1667 31.4688 27.375 30.9062 28.375C30.3438 29.375 29.5417 30.2708 28.5 31.0625C27.4167 31.8542 26.5729 32.625 25.9688 33.375C25.3646 34.125 24.9167 34.9375 24.625 35.8125C24.3333 36.7292 23.9844 37.4062 23.5781 37.8438C23.1719 38.2812 22.5625 38.5 21.75 38.5C21.0625 38.5 20.474 38.2552 19.9844 37.7656C19.4948 37.276 19.25 36.6875 19.25 36H16.75C16.75 37.375 17.2396 38.5521 18.2188 39.5312C19.1979 40.5104 20.375 41 21.75 41ZM35.25 34.4375C36.4792 33.1875 37.4531 31.7344 38.1719 30.0781C38.8906 28.4219 39.25 26.6458 39.25 24.75C39.25 22.8333 38.8906 21.0417 38.1719 19.375C37.4531 17.7083 36.4792 16.25 35.25 15L33.4375 16.75C34.4792 17.7917 35.2917 18.9948 35.875 20.3594C36.4583 21.724 36.75 23.1875 36.75 24.75C36.75 26.2917 36.4583 27.7396 35.875 29.0938C35.2917 30.4479 34.4792 31.6458 33.4375 32.6875L35.25 34.4375ZM25.5 27.875C26.375 27.875 27.1146 27.5677 27.7188 26.9531C28.3229 26.3385 28.625 25.6042 28.625 24.75C28.625 23.875 28.3229 23.1354 27.7188 22.5312C27.1146 21.9271 26.375 21.625 25.5 21.625C24.625 21.625 23.8854 21.9271 23.2812 22.5312C22.6771 23.1354 22.375 23.875 22.375 24.75C22.375 25.6042 22.6771 26.3385 23.2812 26.9531C23.8854 27.5677 24.625 27.875 25.5 27.875Z" fill="#54675E"/>
</svg>
